<svg width="48" height="52" viewBox="0 0 48 52" fill="none" xmlns="http://www.w3.org/2000/svg">
<g filter="url(#filter0_d_4_111)">
<path d="M34.8105 46.4062H47.6045V0H22.5322C20.3623 0 18.2891 0.290039 16.3125 0.870117C14.3145 1.4502 12.5527 2.33105 11.0273 3.5127C9.50195 4.67285 8.28809 6.14453 7.38574 7.92773C6.46191 9.68945 6 11.7627 6 14.1475C6 15.6514 6.21484 17.0693 6.64453 18.4014C7.07422 19.7119 7.67578 20.915 8.44922 22.0107C9.20117 23.1064 10.0928 24.0947 11.124 24.9756C12.1553 25.8564 13.2832 26.5977 14.5078 27.1992C15.7324 27.8008 17.0322 28.2627 18.4072 28.585C19.7607 28.9072 21.1357 29.0684 22.5322 29.0684H34.8105V46.4062ZM18.9551 14.1475C18.9551 11.1611 19.7178 8.81934 21.2432 7.12207C22.7471 5.40332 25.0244 4.54395 28.0752 4.54395H34.8105V24.6855H28.0752C26.4424 24.6855 25.0566 24.4277 23.918 23.9121C22.7578 23.375 21.8125 22.6338 21.082 21.6885C20.3516 20.7432 19.8145 19.6367 19.4707 18.3691C19.127 17.0801 18.9551 15.6729 18.9551 14.1475Z" fill="#CBC0C0"/>
</g>
<defs>
<filter id="filter0_d_4_111" x="0" y="0" width="47.6045" height="51.4062" filterUnits="userSpaceOnUse" color-interpolation-filters="sRGB">
<feFlood flood-opacity="0" result="BackgroundImageFix"/>
<feColorMatrix in="SourceAlpha" type="matrix" values="0 0 0 0 0 0 0 0 0 0 0 0 0 0 0 0 0 0 127 0" result="hardAlpha"/>
<feOffset dx="-5" dy="4"/>
<feGaussianBlur stdDeviation="0.5"/>
<feComposite in2="hardAlpha" operator="out"/>
<feColorMatrix type="matrix" values="0 0 0 0 0 0 0 0 0 0 0 0 0 0 0 0 0 0 0.25 0"/>
<feBlend mode="normal" in2="BackgroundImageFix" result="effect1_dropShadow_4_111"/>
<feBlend mode="normal" in="SourceGraphic" in2="effect1_dropShadow_4_111" result="shape"/>
</filter>
</defs>
</svg>
